<svg width="64" height="64" viewBox="0 0 64 64" fill="none" xmlns="http://www.w3.org/2000/svg">
<path d="M6.93333 28.2401L22.3467 12.8001L26.8533 17.3334C26.2133 19.6001 27.2533 22.0801 29.3333 23.2801V38.0534C27.7333 38.9601 26.6667 40.6934 26.6667 42.6667C26.6667 44.0812 27.2286 45.4378 28.2288 46.438C29.229 47.4382 30.5855 48.0001 32 48.0001C33.4145 48.0001 34.771 47.4382 35.7712 46.438C36.7714 45.4378 37.3333 44.0812 37.3333 42.6667C37.3333 40.6934 36.2667 38.9601 34.6667 38.0534V25.0934L40.1867 30.6667C40 31.0667 40 31.5201 40 32.0001C40 33.4145 40.5619 34.7711 41.5621 35.7713C42.5623 36.7715 43.9188 37.3334 45.3333 37.3334C46.7478 37.3334 48.1044 36.7715 49.1046 35.7713C50.1048 34.7711 50.6667 33.4145 50.6667 32.0001C50.6667 30.5856 50.1048 29.229 49.1046 28.2288C48.1044 27.2286 46.7478 26.6667 45.3333 26.6667C44.8533 26.6667 44.4 26.6667 44 26.8534L37.1467 20.0001C37.4778 18.765 37.3494 17.4517 36.7854 16.304C36.2214 15.1564 35.2601 14.2525 34.08 13.7601C32.9333 13.3334 31.7333 13.2267 30.6667 13.5201L26.1333 9.01339L28.24 6.93339C30.32 4.82673 33.68 4.82673 35.76 6.93339L57.0667 28.2401C59.1733 30.3201 59.1733 33.6801 57.0667 35.7601L35.76 57.0667C33.68 59.1734 30.32 59.1734 28.24 57.0667L6.93333 35.7601C4.82667 33.6801 4.82667 30.3201 6.93333 28.2401Z" fill="#4939BB"/>
</svg>
