<svg width="64" height="64" viewBox="0 0 64 64" fill="none" xmlns="http://www.w3.org/2000/svg">
<path d="M53.3333 49.84L33.8667 60.64C32.5333 61.3334 31.2 61.3334 29.8667 60.64L10.6667 49.84L45.4667 14.7734L46.4 14.5067C47.2 14.5067 47.6533 14.8534 47.7333 15.5734L53.3333 49.84ZM24.9333 15.3067L12.8 35.44L17.8667 3.57338C17.9467 2.85338 18.4 2.50671 19.2 2.50671C19.7333 2.50671 20.08 2.66671 20.2667 3.17338L26 13.7067L24.9333 15.3067ZM36.9333 18.6667L11.4667 44.24L30.8 11.44C31.0667 10.9067 31.4667 10.6667 32 10.6667C32.5333 10.6667 32.88 10.9067 33.0667 11.44L36.9333 18.6667Z" fill="#4939BB"/>
</svg>
