<svg width="64" height="64" viewBox="0 0 64 64" fill="none" xmlns="http://www.w3.org/2000/svg">
<path d="M29.5 37H9.5V52C9.5 53.3261 10.0268 54.5979 10.9645 55.5355C11.9021 56.4732 13.1739 57 14.5 57H49.5C50.8261 57 52.0979 56.4732 53.0355 55.5355C53.9732 54.5979 54.5 53.3261 54.5 52V37H34.5V42H29.5V37ZM29.5 34.5H7V19.5C7 16.75 9.25 14.5 12 14.5H22V12C22 10.6739 22.5268 9.40215 23.4645 8.46447C24.4021 7.52678 25.6739 7 27 7H37C38.3261 7 39.5979 7.52678 40.5355 8.46447C41.4732 9.40215 42 10.6739 42 12V14.5H52C53.3261 14.5 54.5979 15.0268 55.5355 15.9645C56.4732 16.9021 57 18.1739 57 19.5V34.5H34.5V29.5H29.5V34.5ZM37 14.5V12H27V14.5H37Z" fill="#4939BB"/>
</svg>
